<?xml version="1.0" encoding="UTF-8" standalone="no"?>
<!-- Created with Inkscape (http://www.inkscape.org/) -->

<svg
   width="469.82281"
   height="521.90039"
   viewBox="0 0 469.82281 521.90039"
   version="1.1"
   id="svg1"
   inkscape:version="1.3.1 (91b66b0783, 2023-11-16)"
   sodipodi:docname="logo-v1.svg"
   xmlns:inkscape="http://www.inkscape.org/namespaces/inkscape"
   xmlns:sodipodi="http://sodipodi.sourceforge.net/DTD/sodipodi-0.dtd"
   xmlns="http://www.w3.org/2000/svg"
   xmlns:svg="http://www.w3.org/2000/svg">
  <sodipodi:namedview
     id="namedview1"
     pagecolor="#505050"
     bordercolor="#eeeeee"
     borderopacity="1"
     inkscape:showpageshadow="0"
     inkscape:pageopacity="0"
     inkscape:pagecheckerboard="0"
     inkscape:deskcolor="#505050"
     inkscape:document-units="px"
     inkscape:zoom="0.49644789"
     inkscape:cx="-18.128791"
     inkscape:cy="-29.207497"
     inkscape:window-width="1920"
     inkscape:window-height="1009"
     inkscape:window-x="1432"
     inkscape:window-y="-8"
     inkscape:window-maximized="1"
     inkscape:current-layer="layer1"
     showborder="false" />
  <defs
     id="defs1" />
  <g
     inkscape:label="Camada 1"
     inkscape:groupmode="layer"
     id="layer1"
     transform="translate(210.52005,66.050781)">
    <g
       id="g78"
       style="fill:#ffcc00"
       inkscape:export-filename="logo-v2.png"
       inkscape:export-xdpi="96"
       inkscape:export-ydpi="96">
      <path
         d="m 259.30273,-66.050781 -166.673824,0.505859 -116.183593,0.351563 -186.945313,0.566406 0.35608,87.854965 186.23767,-0.0014 v 1.431641 80.900387 h -186.5957 l -0.0181,64.46422 186.61378,-2.66539 H 92.652344 l 69.498916,-0.96811 -0.22353,83.98374 -67.255855,-0.25782 -2.019531,-0.008 -116.558594,-0.44531 -185.54553,-0.28906 v 61.79882 l 185.54553,0.28907 116.558594,0.44531 2.019531,0.008 66.988795,-0.0983 0.31091,84.77958 -67.299705,-0.28287 H -23.90625 l -75.765625,0.31445 -109.834355,0.27149 0.0668,58.95117 185.5332,-0.56445 116.558594,-0.35352 166.650386,-0.50586 V 105.55859 H 94.671875 92.652344 V 23.226562 H 259.30273 Z"
         style="font-size:600px;font-family:'ROG Fonts';-inkscape-font-specification:'ROG Fonts';fill:#ffcc00"
         id="path78"
         sodipodi:nodetypes="cccccccccccccccccccccccccccccccccccccc" />
    </g>
  </g>
</svg>
